<svg width="16" height="16" viewBox="0 0 16 16" fill="none" xmlns="http://www.w3.org/2000/svg">
  <path d="M13.545 2.656C12.5075 2.1835 11.4095 1.834 10.2675 1.625C10.2525 1.62225 10.2375 1.629 10.23 1.643C10.0875 1.89725 9.931 2.22725 9.819 2.485C8.59725 2.2915 7.38275 2.2915 6.182 2.485C6.07 2.22275 5.909 1.89725 5.766 1.643C5.7585 1.62975 5.7435 1.623 5.7285 1.625C4.5865 1.834 3.4885 2.1835 2.451 2.656C2.445 2.6585 2.44 2.663 2.437 2.669C0.3575 5.84475 -0.2135 8.9375 0.0665 11.9945C0.067 12.004 0.0705 12.0135 0.076 12.02C1.4665 13.0445 2.81525 13.6745 4.139 14.0945C4.154 14.099 4.1705 14.093 4.18 14.0805C4.489 13.6615 4.766 13.2195 5.006 12.7545C5.015 12.7375 5.007 12.717 4.989 12.7105C4.551 12.5405 4.132 12.3355 3.729 12.1055C3.709 12.094 3.707 12.066 3.725 12.052C3.8045 11.992 3.884 11.93 3.96 11.867C3.97 11.859 3.984 11.857 3.996 11.863C6.6285 13.0635 9.487 13.0635 12.087 11.863C12.099 11.8565 12.113 11.8585 12.123 11.8665C12.199 11.9295 12.2785 11.992 12.358 12.052C12.376 12.066 12.374 12.094 12.354 12.1055C11.951 12.3415 11.532 12.5405 11.094 12.71C11.076 12.7165 11.068 12.7375 11.077 12.7545C11.322 13.2195 11.599 13.6615 11.903 14.0805C11.912 14.093 11.929 14.099 11.944 14.0945C13.273 13.6745 14.622 13.0445 16.012 12.02C16.018 12.0135 16.021 12.004 16.022 11.9945C16.3515 8.46975 15.4795 5.40225 13.55 2.669C13.547 2.663 13.542 2.6585 13.536 2.656H13.545ZM5.374 10.201C4.582 10.201 3.927 9.478 3.927 8.5915C3.927 7.705 4.5675 6.982 5.374 6.982C6.1865 6.982 6.8325 7.711 6.821 8.5915C6.821 9.478 6.181 10.201 5.374 10.201ZM10.636 10.201C9.844 10.201 9.189 9.478 9.189 8.5915C9.189 7.705 9.8295 6.982 10.636 6.982C11.4485 6.982 12.0945 7.711 12.083 8.5915C12.083 9.478 11.4485 10.201 10.636 10.201Z" fill="white"/>
</svg> 