<svg width="80" height="20" viewBox="0 0 80 20" fill="none" xmlns="http://www.w3.org/2000/svg">
  <path d="M16.9 4.1C16.6 3.9 16.2 3.9 15.8 4.1L12.4 6.1L10 7.5L6.6 9.5C6.3 9.7 5.9 9.7 5.5 9.5L2.8 7.9C2.5 7.7 2.3 7.4 2.3 7V4C2.3 3.6 2.5 3.3 2.8 3.1L5.5 1.5C5.8 1.3 6.2 1.3 6.6 1.5L9.3 3.1C9.6 3.3 9.8 3.6 9.8 4V6L12.2 4.6V2.6C12.2 2.2 12 1.9 11.7 1.7L6.6 -1.3C6.3 -1.5 5.9 -1.5 5.5 -1.3L0.3 1.7C0 1.9 -0.2 2.2 -0.2 2.6V8.4C-0.2 8.8 0 9.1 0.3 9.3L5.5 12.3C5.8 12.5 6.2 12.5 6.6 12.3L10 10.3L12.4 8.9L15.8 6.9C16.1 6.7 16.5 6.7 16.9 6.9L19.6 8.5C19.9 8.7 20.1 9 20.1 9.4V12.4C20.1 12.8 19.9 13.1 19.6 13.3L16.9 14.9C16.6 15.1 16.2 15.1 15.8 14.9L13.1 13.3C12.8 13.1 12.6 12.8 12.6 12.4V10.4L10.2 11.8V13.8C10.2 14.2 10.4 14.5 10.7 14.7L15.9 17.7C16.2 17.9 16.6 17.9 17 17.7L22.2 14.7C22.5 14.5 22.7 14.2 22.7 13.8V8C22.7 7.6 22.5 7.3 22.2 7.1L16.9 4.1Z" fill="#8247E5"/>
  <path d="M35 13.5H37L39 8.5L41 13.5H43L46 5.5H44L42 10.5L40 5.5H38L36 10.5L34 5.5H32L35 13.5Z" fill="white"/>
  <path d="M48 13.5H50V5.5H48V13.5ZM48 4.5H50V2.5H48V4.5Z" fill="white"/>
  <path d="M52 13.5H54V8.5C54 7.5 55 6.5 56 6.5C57 6.5 58 7.5 58 8.5V13.5H60V8.5C60 6.5 58 4.5 56 4.5C54 4.5 52 6.5 52 8.5V13.5Z" fill="white"/>
  <path d="M62 13.5H64V8.5C64 7.5 65 6.5 66 6.5C67 6.5 68 7.5 68 8.5V13.5H70V8.5C70 6.5 68 4.5 66 4.5C64 4.5 62 6.5 62 8.5V13.5Z" fill="white"/>
  <path d="M72 13.5H74V8.5C74 7.5 75 6.5 76 6.5C77 6.5 78 7.5 78 8.5V13.5H80V8.5C80 6.5 78 4.5 76 4.5C74 4.5 72 6.5 72 8.5V13.5Z" fill="white"/>
</svg> 