<svg width="150" height="32" viewBox="0 0 150 32" fill="none" xmlns="http://www.w3.org/2000/svg">
  <path d="M20.5 0H11.5C5.14873 0 0 5.14873 0 11.5V20.5C0 26.8513 5.14873 32 11.5 32H20.5C26.8513 32 32 26.8513 32 20.5V11.5C32 5.14873 26.8513 0 20.5 0Z" fill="#6C5DD3"/>
  <path d="M45 8.5H50L55.5 19L61 8.5H66L57.5 24H53.5L45 8.5Z" fill="white"/>
  <path d="M68 8.5H73V24H68V8.5Z" fill="white"/>
  <path d="M76 8.5H81L86.5 19L92 8.5H97L88.5 24H84.5L76 8.5Z" fill="white"/>
  <path d="M99 8.5H104V24H99V8.5Z" fill="white"/>
  <path d="M107 8.5H112L117.5 19L123 8.5H128L119.5 24H115.5L107 8.5Z" fill="white"/>
  <path d="M130 8.5H135V24H130V8.5Z" fill="white"/>
  <path d="M138 8.5H143L148.5 19L150 24H145L138 8.5Z" fill="white"/>
</svg> 